# xmcd
#
# Track frame offsets:
#	150
#	10140
#	26677
#	43450
#	55645
#	72901
#	92498
#	112736
#	125891
#	143516
#	157591
#	176165
#	189768
#	232339
#	252490
#	271364
#
# Disc length: 4054 seconds
#
# Revision: 0
# Processed by: cddbd v1.5.2PL0 Copyright (c) Steve Scherf et al.
# Submitted via: EZCDAudioConverter 2.0.6.1
#
DISCID=d70fd410
DTITLE=Various Artist - Blues From A Smoky Bar - CD 1
DYEAR=2014
DGENRE=Blues
TTITLE0=Mark Selby - Black Diamond
TTITLE1=Henrik Freischlader Band - Sometimes
TTITLE2=Dr. Will - I Wish I Had A Song
TTITLE3=Howlin' Wolf - Spoonful
TTITLE4=Willie Logan - 3 Days
TTITLE5=Champion Jack Dupree - Evil Woman
TTITLE6=Marla Glen - Maddy And Johnny
TTITLE7=Eddie Boyd - I Got The Blues
TTITLE8=Geoff Achison And The Souldiggers - Little Big Men
TTITLE9=Buddy Guy - I Got A Strange Feeling
TTITLE10=Greg Koch Trio - Sleep Tight
TTITLE11=Big Bill Broonzy - Southbound Train
TTITLE12=Get The Cat - Your Last Shirt (Won't Have A Pocket)
TTITLE13=Otis Spann - Country Boy
TTITLE14=Stephanie Neigel - Wrong Plan
TTITLE15=Paul Camilleri - On My Own
EXTD=
EXTT0=
EXTT1=
EXTT2=
EXTT3=
EXTT4=
EXTT5=
EXTT6=
EXTT7=
EXTT8=
EXTT9=
EXTT10=
EXTT11=
EXTT12=
EXTT13=
EXTT14=
EXTT15=
PLAYORDER=
